<svg width="150" height="150" viewBox="0 0 150 150" fill="none" xmlns="http://www.w3.org/2000/svg">
<path d="M127.638 53.225C126.525 33.0187 108.694 17.1125 87.4375 18.9C80.6438 11.1562 70.6062 6.25 59.375 6.25C39.55 6.25 23.4125 21.5187 22.3625 40.725C9.65625 42.9687 0 53.8812 0 67.0125C0 81.775 12.1813 93.75 27.2125 93.75H35.5C40.3187 101.237 48.775 106.25 58.4625 106.25H122.781C137.819 106.25 150 94.275 150 79.5125C150 66.3812 140.344 55.4687 127.638 53.225ZM31.4187 81.25H27.2125C19.1063 81.25 12.5 74.8625 12.5 67.0125C12.5 53.775 25.65 50.7812 34.3 51.3125C33.9875 42.8375 35.1562 18.75 59.375 18.75C65.4187 18.75 70.0875 20.3125 73.6875 22.775C62.2938 28.5375 54.3375 39.9375 53.6125 53.225C40.975 55.4625 30.5062 66.5187 31.4187 81.25ZM122.781 93.75H58.4625C50.3563 93.75 43.75 87.3625 43.75 79.5125C43.75 66.275 56.9 63.2812 65.55 63.8125C65.2375 55.3375 66.4062 31.25 90.625 31.25C114.194 31.25 117.056 54.8187 115.7 63.8062C125.131 63.15 137.5 66.5375 137.5 79.5125C137.5 87.3625 130.894 93.75 122.781 93.75ZM34.8875 143.75L26.075 134.937L48.5125 112.5L57.325 121.312L34.8875 143.75ZM88.2812 121.312L79.4688 112.5L57.0312 134.937L65.8438 143.75L88.2812 121.312ZM118.75 121.312L109.938 112.5L87.5 134.937L96.3125 143.75L118.75 121.312Z" fill="white"/>
</svg>
