<svg width="30" height="31" viewBox="0 0 30 31" fill="none" xmlns="http://www.w3.org/2000/svg">
<g clip-path="url(#clip0)">
<path d="M28.8888 25.1365L22.6675 18.8993C23.8738 16.9945 24.5712 14.7362 24.5712 12.3188C24.5712 5.52656 19.06 0 12.285 0C5.51 0 0 5.52656 0 12.3188C0 19.1111 5.51 24.6377 12.2863 24.6377C14.5788 24.6377 16.7262 24.0048 18.5637 22.9045L24.84 29.1968C27.52 31.8799 31.57 27.8233 28.8888 25.1365ZM3.80875 12.3188C3.80875 7.63317 7.6125 3.81972 12.2863 3.81972C16.96 3.81972 20.7638 7.63192 20.7638 12.3188C20.7638 17.0058 16.96 20.818 12.2863 20.818C7.6125 20.818 3.80875 17.0045 3.80875 12.3188ZM6.32125 10.1082C8.80125 4.34481 17.1513 5.01275 18.7238 11.0469C15.5563 7.31987 9.9825 6.91885 6.32125 10.1082Z" fill="#98908A"/>
</g>
<defs>
<clipPath id="clip0">
<rect width="30" height="30.0765" fill="white"/>
</clipPath>
</defs>
</svg>
