<svg width="38" height="65" viewBox="0 0 38 65" fill="none" xmlns="http://www.w3.org/2000/svg">
<g clip-path="url(#clip0)">
<path d="M19 41.2195C21.6188 41.2195 23.75 43.3534 23.75 45.9756C23.75 48.5978 21.6188 50.7317 19 50.7317C16.3812 50.7317 14.25 48.5978 14.25 45.9756C14.25 43.3534 16.3812 41.2195 19 41.2195ZM19 38.0488C14.6268 38.0488 11.0833 41.5968 11.0833 45.9756C11.0833 50.3544 14.6268 53.9024 19 53.9024C23.3732 53.9024 26.9167 50.3544 26.9167 45.9756C26.9167 41.5968 23.3732 38.0488 19 38.0488ZM12.3753 37.0991L6.68642 31.4013L4.446 33.643L10.1381 39.3424C10.773 38.4911 11.5251 37.7365 12.3753 37.0991ZM19 34.878C19.5383 34.878 20.064 34.9304 20.5833 35.0049V26.9512H17.4167V35.0049C17.936 34.9304 18.4617 34.878 19 34.878ZM27.8635 39.3409L33.5556 33.6415L31.3167 31.3998L25.6247 37.0991C26.4749 37.7365 27.227 38.4911 27.8635 39.3409ZM7.91667 45.9756C7.91667 45.4366 7.96892 44.9102 8.04333 44.3902H0V47.561H8.04333C7.96892 47.041 7.91667 46.5146 7.91667 45.9756ZM25.6262 54.8505L31.3167 60.5467L33.5572 58.305L27.8667 52.6088C27.2286 53.4585 26.4749 54.2132 25.6262 54.8505ZM10.1349 52.6088L4.446 58.305L6.68483 60.5467L12.3738 54.8505C11.5251 54.2132 10.773 53.4601 10.1349 52.6088ZM29.9567 44.3902C30.0311 44.9102 30.0833 45.4366 30.0833 45.9756C30.0833 46.5146 30.0311 47.041 29.9567 47.561H38V44.3902H29.9567ZM19 57.0732C18.4617 57.0732 17.936 57.0209 17.4167 56.9463V65H20.5833V56.9463C20.064 57.0209 19.5383 57.0732 19 57.0732Z" fill="#FECF59"/>
<path d="M6.33331 20.4903L9.50611 23.7805L19.7961 12.9229L30.0772 23.7805L33.25 20.4903L19.7961 6.34146L6.33331 20.4903Z" fill="white"/>
</g>
<defs>
<clipPath id="clip0">
<rect width="38" height="65" fill="white"/>
</clipPath>
</defs>
</svg>
