<?xml version="1.0" encoding="UTF-8" standalone="no"?>
<!DOCTYPE svg PUBLIC "-//W3C//DTD SVG 1.1//EN" "http://www.w3.org/Graphics/SVG/1.1/DTD/svg11.dtd">
<svg width="100%" height="100%" viewBox="0 0 38 65" version="1.1" xmlns="http://www.w3.org/2000/svg" xmlns:xlink="http://www.w3.org/1999/xlink" xml:space="preserve" xmlns:serif="http://www.serif.com/" style="fill-rule:evenodd;clip-rule:evenodd;stroke-linejoin:round;stroke-miterlimit:2;">
    <g>
        <path d="M19,41.219C21.619,41.219 23.75,43.353 23.75,45.976C23.75,48.598 21.619,50.732 19,50.732C16.381,50.732 14.25,48.598 14.25,45.976C14.25,43.353 16.381,41.219 19,41.219ZM19,38.049C14.627,38.049 11.083,41.597 11.083,45.976C11.083,50.354 14.627,53.902 19,53.902C23.373,53.902 26.917,50.354 26.917,45.976C26.917,41.597 23.373,38.049 19,38.049ZM12.375,37.099L6.686,31.401L4.446,33.643L10.138,39.342C10.773,38.491 11.525,37.737 12.375,37.099ZM19,34.878C19.538,34.878 20.064,34.93 20.583,35.005L20.583,26.951L17.417,26.951L17.417,35.005C17.936,34.93 18.462,34.878 19,34.878ZM27.863,39.341L33.556,33.642L31.317,31.4L25.625,37.099C26.475,37.737 27.227,38.491 27.863,39.341ZM7.917,45.976C7.917,45.437 7.969,44.91 8.043,44.39L0,44.39L0,47.561L8.043,47.561C7.969,47.041 7.917,46.515 7.917,45.976ZM25.626,54.85L31.317,60.547L33.557,58.305L27.867,52.609C27.229,53.459 26.475,54.213 25.626,54.85ZM10.135,52.609L4.446,58.305L6.685,60.547L12.374,54.85C11.525,54.213 10.773,53.46 10.135,52.609ZM29.957,44.39C30.031,44.91 30.083,45.437 30.083,45.976C30.083,46.515 30.031,47.041 29.957,47.561L38,47.561L38,44.39L29.957,44.39ZM19,57.073C18.462,57.073 17.936,57.021 17.417,56.946L17.417,65L20.583,65L20.583,56.946C20.064,57.021 19.538,57.073 19,57.073Z" style="fill:rgb(254,207,89);fill-rule:nonzero;"/>
        <path d="M6.333,20.49L9.506,23.781L19.796,12.923L30.077,23.781L33.25,20.49L19.796,6.341L6.333,20.49Z" style="fill:white;fill-rule:nonzero;"/>
    </g>
</svg>
