<?xml version="1.0" encoding="UTF-8" standalone="no"?>
<!DOCTYPE svg PUBLIC "-//W3C//DTD SVG 1.1//EN" "http://www.w3.org/Graphics/SVG/1.1/DTD/svg11.dtd">
<svg width="100%" height="100%" viewBox="0 0 38 65" version="1.1" xmlns="http://www.w3.org/2000/svg" xmlns:xlink="http://www.w3.org/1999/xlink" xml:space="preserve" xmlns:serif="http://www.serif.com/" style="fill-rule:evenodd;clip-rule:evenodd;stroke-linejoin:round;stroke-miterlimit:2;">
    <g>
        <path d="M19,23.781C16.381,23.781 14.25,21.647 14.25,19.024C14.25,16.402 16.381,14.268 19,14.268C21.619,14.268 23.75,16.402 23.75,19.024C23.75,21.647 21.619,23.781 19,23.781ZM19,26.951C23.373,26.951 26.917,23.403 26.917,19.024C26.917,14.646 23.373,11.098 19,11.098C14.627,11.098 11.083,14.646 11.083,19.024C11.083,23.403 14.627,26.951 19,26.951ZM25.625,27.901L31.314,33.599L33.554,31.357L27.862,25.658C27.227,26.509 26.475,27.264 25.625,27.901ZM19,30.122C18.462,30.122 17.936,30.07 17.417,29.995L17.417,38.049L20.583,38.049L20.583,29.995C20.064,30.07 19.538,30.122 19,30.122ZM10.137,25.659L4.444,31.359L6.683,33.6L12.375,27.901C11.525,27.264 10.773,26.509 10.137,25.659ZM30.083,19.024C30.083,19.563 30.031,20.09 29.957,20.61L38,20.61L38,17.439L29.957,17.439C30.031,17.959 30.083,18.485 30.083,19.024ZM12.374,10.15L6.683,4.453L4.443,6.695L10.133,12.391C10.771,11.541 11.525,10.787 12.374,10.15ZM27.865,12.391L33.554,6.695L31.315,4.453L25.626,10.15C26.475,10.787 27.227,11.54 27.865,12.391ZM8.043,20.61C7.969,20.09 7.917,19.563 7.917,19.024C7.917,18.485 7.969,17.959 8.043,17.439L0,17.439L0,20.61L8.043,20.61ZM19,7.927C19.538,7.927 20.064,7.979 20.583,8.054L20.583,-0L17.417,-0L17.417,8.054C17.936,7.979 18.462,7.927 19,7.927Z" style="fill:rgb(254,207,89);fill-rule:nonzero;"/>
        <path d="M31.667,44.51L28.494,41.219L18.204,52.077L7.923,41.219L4.75,44.51L18.204,58.658L31.667,44.51Z" style="fill:white;fill-rule:nonzero;"/>
    </g>
</svg>
