<svg width="38" height="65" viewBox="0 0 38 65" fill="none" xmlns="http://www.w3.org/2000/svg">
<g clip-path="url(#clip0)">
<path d="M19 23.7805C16.3812 23.7805 14.25 21.6466 14.25 19.0244C14.25 16.4022 16.3812 14.2683 19 14.2683C21.6188 14.2683 23.75 16.4022 23.75 19.0244C23.75 21.6466 21.6188 23.7805 19 23.7805ZM19 26.9512C23.3732 26.9512 26.9167 23.4032 26.9167 19.0244C26.9167 14.6456 23.3732 11.0976 19 11.0976C14.6268 11.0976 11.0833 14.6456 11.0833 19.0244C11.0833 23.4032 14.6268 26.9512 19 26.9512ZM25.6247 27.9009L31.3136 33.5987L33.554 31.357L27.8619 25.6576C27.227 26.5089 26.4749 27.2635 25.6247 27.9009ZM19 30.122C18.4617 30.122 17.936 30.0696 17.4167 29.9951L17.4167 38.0488L20.5833 38.0488L20.5833 29.9951C20.064 30.0696 19.5383 30.122 19 30.122ZM10.1365 25.6591L4.44442 31.3585L6.68325 33.6002L12.3753 27.9009C11.5251 27.2635 10.773 26.5089 10.1365 25.6591ZM30.0833 19.0244C30.0833 19.5634 30.0311 20.0898 29.9567 20.6098L38 20.6098L38 17.439L29.9567 17.439C30.0311 17.959 30.0833 18.4854 30.0833 19.0244ZM12.3738 10.1495L6.68325 4.45329L4.44284 6.695L10.1333 12.3912C10.7714 11.5415 11.5251 10.7868 12.3738 10.1495ZM27.8651 12.3912L33.554 6.695L31.3152 4.45329L25.6263 10.1495C26.4749 10.7868 27.227 11.5399 27.8651 12.3912ZM8.04333 20.6098C7.96892 20.0898 7.91667 19.5634 7.91667 19.0244C7.91667 18.4854 7.96892 17.959 8.04333 17.439L1.80176e-06 17.439L1.52457e-06 20.6098L8.04333 20.6098ZM19 7.92683C19.5383 7.92683 20.064 7.97915 20.5833 8.05366L20.5833 -1.52261e-06L17.4167 -1.79945e-06L17.4167 8.05366C17.936 7.97915 18.4617 7.92683 19 7.92683Z" fill="#FECF59"/>
<path d="M31.6667 44.5097L28.4939 41.2195L18.2039 52.077L7.92282 41.2195L4.75002 44.5097L18.2039 58.6585L31.6667 44.5097Z" fill="white"/>
</g>
<defs>
<clipPath id="clip0">
<rect width="38" height="65" fill="white" transform="translate(38 65) rotate(-180)"/>
</clipPath>
</defs>
</svg>
