<svg width="224" height="107" viewBox="0 0 224 107" fill="none" xmlns="http://www.w3.org/2000/svg">
<path d="M119.69 72.1469C119.69 77.462 118.692 81.4737 116.694 84.1821C114.714 86.8735 111.692 88.2192 107.63 88.2192C103.635 88.2192 100.622 86.9073 98.5906 84.2836C96.5763 81.643 95.5438 77.7413 95.493 72.5786V66.1801C95.493 60.865 96.4832 56.8787 98.4637 54.2211C100.461 51.5636 103.499 50.2348 107.579 50.2348C111.624 50.2348 114.638 51.5297 116.618 54.1196C118.615 56.7094 119.639 60.5857 119.69 65.7485V72.1469ZM113.52 65.2407C113.52 61.7706 113.046 59.2315 112.098 57.6235C111.151 55.9985 109.644 55.186 107.579 55.186C105.565 55.186 104.083 55.9562 103.136 57.4965C102.188 59.02 101.688 61.4067 101.638 64.6567V73.0356C101.638 76.4887 102.12 79.0616 103.085 80.7543C104.05 82.447 105.565 83.2934 107.63 83.2934C109.61 83.2934 111.074 82.5148 112.022 80.9575C112.97 79.3832 113.47 76.9288 113.52 73.5942V65.2407Z" fill="white"/>
<path d="M196.689 91.9998C152.642 -1.76862 65.068 0.052166 21.8684 92H17C62.1435 -5.69695 155.971 -7.63158 202 91.9998H196.689Z" fill="white"/>
<path d="M27.5839 92H14C24.6096 69.0565 37.1304 51.3219 51.8655 39.0244L61.3713 44.7889C47.5999 56.3492 37.6492 70.5925 27.5839 92Z" fill="#FECF59"/>
<path d="M212.08 90.2165H210.425V82.2253L207.985 83.0593V81.6579L211.868 80.2292H212.08V90.2165ZM216.613 85.281L217.153 80.2634H222.499V81.6989H218.534L218.261 84.0779C218.721 83.8135 219.24 83.6814 219.819 83.6814C220.767 83.6814 221.503 83.9844 222.027 84.5905C222.556 85.1967 222.82 86.0124 222.82 87.0378C222.82 88.0495 222.528 88.8562 221.945 89.4577C221.362 90.0547 220.562 90.3532 219.546 90.3532C218.634 90.3532 217.878 90.0958 217.276 89.5808C216.679 89.0612 216.356 88.3777 216.305 87.53H217.912C217.976 88.0131 218.149 88.3845 218.431 88.6443C218.714 88.8995 219.083 89.0271 219.539 89.0271C220.049 89.0271 220.446 88.8448 220.728 88.4802C221.015 88.1156 221.159 87.6189 221.159 86.99C221.159 86.3838 221.002 85.9053 220.687 85.5544C220.373 85.1989 219.94 85.0212 219.388 85.0212C219.088 85.0212 218.832 85.0622 218.623 85.1443C218.413 85.2217 218.185 85.3767 217.939 85.6091L216.613 85.281Z" fill="white"/>
<path d="M180.859 43.8866H179.204V35.8954L176.764 36.7294V35.328L180.647 33.8993H180.859V43.8866ZM191.64 43.8866H184.948V42.745L188.263 39.1288C188.742 38.5956 189.081 38.1512 189.282 37.7958C189.487 37.4358 189.589 37.0757 189.589 36.7157C189.589 36.2417 189.455 35.8589 189.186 35.5673C188.922 35.2756 188.564 35.1298 188.113 35.1298C187.575 35.1298 187.158 35.2938 186.862 35.6219C186.565 35.9501 186.417 36.399 186.417 36.9686H184.756C184.756 36.3625 184.893 35.8179 185.166 35.3348C185.444 34.8472 185.839 34.469 186.349 34.2001C186.864 33.9312 187.456 33.7968 188.126 33.7968C189.092 33.7968 189.853 34.0406 190.409 34.5282C190.97 35.0113 191.25 35.6812 191.25 36.538C191.25 37.0347 191.109 37.5565 190.826 38.1034C190.548 38.6457 190.09 39.2632 189.452 39.9559L187.019 42.5604H191.64V43.8866Z" fill="white"/>
<path d="M150.98 8.83691C150.424 9.4248 149.775 9.71875 149.032 9.71875C148.157 9.71875 147.46 9.41341 146.94 8.80273C146.421 8.1875 146.161 7.38086 146.161 6.38281C146.161 5.72656 146.293 5.13184 146.557 4.59863C146.822 4.06543 147.198 3.65072 147.685 3.35449C148.173 3.05827 148.738 2.91016 149.381 2.91016C150.383 2.91016 151.178 3.28385 151.766 4.03125C152.354 4.77865 152.648 5.77897 152.648 7.03223V7.49707C152.648 9.29264 152.243 10.6621 151.431 11.6055C150.62 12.5488 149.41 13.0273 147.801 13.041H147.603V11.667H147.842C148.822 11.6533 149.574 11.4186 150.098 10.9629C150.622 10.5026 150.916 9.79395 150.98 8.83691ZM149.381 8.41992C149.713 8.41992 150.025 8.32422 150.317 8.13281C150.609 7.94141 150.834 7.67708 150.994 7.33984V6.69043C150.994 5.95671 150.843 5.36654 150.543 4.91992C150.242 4.47331 149.852 4.25 149.374 4.25C148.895 4.25 148.512 4.44824 148.225 4.84473C147.943 5.23665 147.801 5.7334 147.801 6.33496C147.801 6.95931 147.945 7.46289 148.232 7.8457C148.519 8.22852 148.902 8.41992 149.381 8.41992Z" fill="white"/>
<path d="M74.5564 2.99902V4.37305H74.3513C73.4216 4.38672 72.6788 4.64193 72.1228 5.13867C71.5668 5.63542 71.2364 6.33952 71.1316 7.25098C71.6648 6.69043 72.3461 6.41016 73.1755 6.41016C74.0551 6.41016 74.7478 6.72005 75.2537 7.33984C75.7641 7.95964 76.0193 8.75944 76.0193 9.73926C76.0193 10.751 75.7208 11.5713 75.1238 12.2002C74.5313 12.8245 73.752 13.1367 72.7859 13.1367C71.7924 13.1367 70.9858 12.7699 70.366 12.0361C69.7507 11.3024 69.4431 10.3408 69.4431 9.15137V8.58398C69.4431 6.83854 69.8669 5.47135 70.7146 4.48242C71.5668 3.49349 72.7904 2.99902 74.3855 2.99902H74.5564ZM72.7722 7.75C72.4076 7.75 72.0727 7.85254 71.7673 8.05762C71.4666 8.2627 71.2455 8.53613 71.1042 8.87793V9.38379C71.1042 10.1221 71.2592 10.71 71.5691 11.1475C71.879 11.5804 72.28 11.7969 72.7722 11.7969C73.2644 11.7969 73.6541 11.6123 73.9412 11.2432C74.2283 10.874 74.3718 10.3887 74.3718 9.78711C74.3718 9.18555 74.226 8.69564 73.9343 8.31738C73.6427 7.93913 73.2553 7.75 72.7722 7.75Z" fill="white"/>
<path d="M27.8487 38.1512H28.8604C29.3708 38.1467 29.7741 38.0145 30.0704 37.7548C30.3712 37.495 30.5215 37.119 30.5215 36.6268C30.5215 36.1529 30.3962 35.786 30.1456 35.5262C29.8995 35.2619 29.5212 35.1298 29.0108 35.1298C28.5642 35.1298 28.1973 35.2596 27.9102 35.5194C27.6231 35.7746 27.4796 36.1096 27.4796 36.5243H25.8184C25.8184 36.0139 25.9529 35.549 26.2217 35.1298C26.4952 34.7105 26.8734 34.3846 27.3565 34.1522C27.8441 33.9152 28.3887 33.7968 28.9903 33.7968C29.9838 33.7968 30.7631 34.0474 31.3282 34.5487C31.8978 35.0455 32.1827 35.7382 32.1827 36.6268C32.1827 37.0734 32.0391 37.495 31.752 37.8915C31.4695 38.2834 31.1026 38.5796 30.6514 38.7802C31.1983 38.967 31.613 39.2609 31.8956 39.662C32.1827 40.063 32.3262 40.5415 32.3262 41.0975C32.3262 41.9908 32.0186 42.7017 31.4034 43.2303C30.7927 43.759 29.9883 44.0233 28.9903 44.0233C28.0333 44.0233 27.2494 43.7681 26.6387 43.2577C26.0281 42.7473 25.7227 42.0682 25.7227 41.2206H27.3839C27.3839 41.6581 27.5297 42.0135 27.8214 42.287C28.1176 42.5604 28.5141 42.6971 29.0108 42.6971C29.5258 42.6971 29.9314 42.5604 30.2276 42.287C30.5238 42.0135 30.6719 41.6171 30.6719 41.0975C30.6719 40.5734 30.517 40.1701 30.2071 39.8876C29.8972 39.605 29.4369 39.4637 28.8262 39.4637H27.8487V38.1512Z" fill="white"/>
<path d="M5.24316 90.2165H3.58887V82.2253L1.14844 83.0593V81.6579L5.03125 80.2292H5.24316V90.2165Z" fill="white"/>
</svg>
