<?xml version="1.0" encoding="UTF-8" standalone="no"?>
<!DOCTYPE svg PUBLIC "-//W3C//DTD SVG 1.1//EN" "http://www.w3.org/Graphics/SVG/1.1/DTD/svg11.dtd">
<svg width="100%" height="100%" viewBox="0 0 54 54" version="1.1" xmlns="http://www.w3.org/2000/svg" xmlns:xlink="http://www.w3.org/1999/xlink" xml:space="preserve" xmlns:serif="http://www.serif.com/" style="fill-rule:evenodd;clip-rule:evenodd;stroke-linejoin:round;stroke-miterlimit:2;">
    <g id="fog" transform="matrix(1,0,0,1,-5,-5)">
        <path d="M41.7,38.5C38.5,38.5 35.6,37.6 33,35.8C25.8,30.7 19.8,30.5 13.4,34.9C12.9,35.2 12.3,35.1 12,34.6C11.7,34.1 11.8,33.5 12.3,33.2C19.4,28.3 26.4,28.6 34.2,34.1C40.4,38.5 47.5,36 52.4,33.1C52.9,32.8 53.5,33 53.8,33.5C54.1,34 53.9,34.6 53.4,34.9C49.4,37.3 45.4,38.5 41.7,38.5Z" style="fill:white;fill-rule:nonzero;"/>
        <path d="M41.7,46.3C38.5,46.3 35.6,45.4 33,43.6C25.8,38.5 19.8,38.3 13.4,42.7C12.9,43 12.3,42.9 12,42.4C11.7,41.9 11.8,41.3 12.3,41C19.4,36.1 26.4,36.4 34.2,41.9C40.4,46.2 47.5,43.8 52.4,40.9C52.9,40.6 53.5,40.8 53.8,41.3C54.1,41.8 53.9,42.4 53.4,42.7C49.4,45.1 45.4,46.3 41.7,46.3ZM41.7,30.8C38.5,30.8 35.6,29.9 33,28.1C25.8,23 19.8,22.8 13.4,27.2C12.9,27.5 12.3,27.4 12,26.9C11.7,26.4 11.8,25.8 12.3,25.5C19.4,20.6 26.4,20.9 34.2,26.4C40.4,30.8 47.5,28.3 52.4,25.4C52.9,25.1 53.5,25.3 53.8,25.8C54.1,26.3 53.9,26.9 53.4,27.2C49.4,29.6 45.4,30.8 41.7,30.8Z" style="fill:white;fill-rule:nonzero;"/>
    </g>
</svg>
