<?xml version="1.0" encoding="UTF-8" standalone="no"?>
<!DOCTYPE svg PUBLIC "-//W3C//DTD SVG 1.1//EN" "http://www.w3.org/Graphics/SVG/1.1/DTD/svg11.dtd">
<svg width="100%" height="100%" viewBox="0 0 54 54" version="1.1" xmlns="http://www.w3.org/2000/svg" xmlns:xlink="http://www.w3.org/1999/xlink" xml:space="preserve" xmlns:serif="http://www.serif.com/" style="fill-rule:evenodd;clip-rule:evenodd;stroke-linejoin:round;stroke-miterlimit:2;">
    <g id="mostlycloudy" transform="matrix(1,0,0,1,-5,-5)">
        <path d="M43.1,13.9C42.4,13.9 41.9,13.3 41.9,12.7L41.9,9.2C41.9,8.5 42.5,8 43.1,8C43.8,8 44.3,8.6 44.3,9.2L44.3,12.6C44.3,13.3 43.8,13.9 43.1,13.9ZM57.6,25L54.2,25C53.5,25 53,24.5 53,23.8C53,23.1 53.5,22.6 54.2,22.6L57.6,22.6C58.3,22.6 58.8,23.1 58.8,23.8C58.9,24.5 58.3,25 57.6,25ZM51.3,17.1C51,17.1 50.7,17 50.4,16.7C49.9,16.2 49.9,15.4 50.4,15L52.8,12.6C53.3,12.1 54.1,12.1 54.5,12.6C55,13.1 55,13.9 54.5,14.3L52.1,16.7C52,17 51.6,17.1 51.3,17.1ZM53.7,35.4C53.4,35.4 53.1,35.3 52.8,35L50.4,32.6C49.9,32.1 49.9,31.3 50.4,30.9C50.9,30.4 51.7,30.4 52.1,30.9L54.5,33.3C55,33.8 55,34.6 54.5,35C54.4,35.3 54,35.4 53.7,35.4ZM35.3,17.2C35,17.2 34.7,17.1 34.4,16.8L32,14.5C31.5,14 31.5,13.2 32,12.8C32.5,12.3 33.3,12.3 33.7,12.8L36.1,15.2C36.6,15.7 36.6,16.5 36.1,16.9C35.9,17.1 35.6,17.2 35.3,17.2Z" style="fill:rgb(244,167,29);fill-rule:nonzero;"/>
        <path d="M45.6,57.8L16,57.8C10.9,57.8 6.7,53.6 6.7,48.5C6.7,44.5 9.3,40.9 13,39.7L13,39.5C13,34.8 16.8,31 21.5,31C22.6,31 23.7,31.2 24.7,31.7C26.9,28.3 30.7,26.3 34.8,26.3C41.5,26.3 47,31.8 47,38.5C47,39.2 46.9,39.9 46.8,40.6C51,41.2 54.3,44.8 54.3,49.2C54.2,53.9 50.4,57.8 45.6,57.8ZM21.4,33.7C18.2,33.7 15.6,36.3 15.6,39.5C15.6,39.8 15.6,40.1 15.7,40.5L15.9,41.8L14.6,42C11.5,42.6 9.3,45.4 9.3,48.5C9.3,52.2 12.3,55.2 16,55.2L45.6,55.2C48.9,55.2 51.6,52.5 51.6,49.2C51.6,45.9 48.9,43.2 45.6,43.2L45.3,43.2L43.3,43.3L43.9,41.4C44.2,40.5 44.4,39.5 44.4,38.5C44.4,33.2 40.1,29 34.9,29C31.4,29 28.1,31 26.5,34.1L25.8,35.4L24.6,34.7C23.6,33.9 22.5,33.7 21.4,33.7Z" style="fill:white;fill-rule:nonzero;"/>
        <path d="M44.6,16C40.4,15.2 36.4,18 35.7,22.2C35.6,22.6 35.6,22.9 35.6,23.3C35.5,23.8 35.9,24.3 36.5,24.4C37.6,24.5 37.5,23.4 37.7,22.7C38.3,19.6 41.2,17.6 44.3,18.1C47.4,18.7 49.4,21.6 48.9,24.7C48.8,25.4 48.6,26.1 48.2,26.7C47.7,27.4 46.9,28 46.2,28.5C45.6,28.9 45.9,29.8 46.6,29.9C47.4,30.1 48.1,29.5 48.7,28.9C49.4,28.3 50,27.4 50.4,26.5C50.6,26 50.8,25.5 50.9,25C51.6,20.7 48.8,16.7 44.6,16Z" style="fill:rgb(244,167,29);fill-rule:nonzero;"/>
    </g>
</svg>
