<?xml version="1.0" encoding="UTF-8" standalone="no"?>
<!DOCTYPE svg PUBLIC "-//W3C//DTD SVG 1.1//EN" "http://www.w3.org/Graphics/SVG/1.1/DTD/svg11.dtd">
<svg width="100%" height="100%" viewBox="0 0 54 54" version="1.1" xmlns="http://www.w3.org/2000/svg" xmlns:xlink="http://www.w3.org/1999/xlink" xml:space="preserve" xmlns:serif="http://www.serif.com/" style="fill-rule:evenodd;clip-rule:evenodd;stroke-linejoin:round;stroke-miterlimit:2;">
    <g id="mostlysunny" transform="matrix(1,0,0,1,-5,-5)">
        <path d="M35.5,15.3C34.8,15.3 34.2,14.7 34.2,14L34.2,9C34.2,8.3 34.8,7.7 35.5,7.7C36.2,7.7 36.8,8.3 36.8,9L36.8,14C36.8,14.7 36.2,15.3 35.5,15.3ZM19.2,31.6L14.2,31.6C13.5,31.6 12.9,31 12.9,30.3C12.9,29.6 13.5,29 14.2,29L19.2,29C19.9,29 20.5,29.6 20.5,30.3C20.5,31 19.9,31.6 19.2,31.6ZM56.7,31.6L51.7,31.6C51,31.6 50.4,31 50.4,30.3C50.4,29.6 51,29 51.7,29L56.7,29C57.4,29 58,29.6 58,30.3C58,31 57.4,31.6 56.7,31.6ZM47.5,20C47.2,20 46.8,19.9 46.6,19.6C46.1,19.1 46.1,18.2 46.6,17.7L50.1,14.2C50.6,13.7 51.5,13.7 52,14.2C52.5,14.7 52.5,15.6 52,16.1L48.5,19.6C48.2,19.8 47.8,20 47.5,20ZM51,46.8C50.7,46.8 50.3,46.7 50.1,46.4L46.6,42.9C46.1,42.4 46.1,41.5 46.6,41C47.1,40.5 47.9,40.5 48.5,41L52,44.5C52.5,45 52.5,45.9 52,46.4C51.7,46.6 51.3,46.8 51,46.8ZM24,20.2C23.7,20.2 23.3,20.1 23.1,19.8L19.6,16.3C19.1,15.8 19.1,14.9 19.6,14.4C20.1,13.9 20.9,13.9 21.5,14.4L25,17.9C25.5,18.4 25.5,19.3 25,19.8C24.7,20.1 24.3,20.2 24,20.2Z" style="fill:rgb(244,167,29);fill-rule:nonzero;"/>
        <path d="M33.4,58.2L13.4,58.2C9.7,58.2 6.7,55.2 6.7,51.5C6.7,48.7 8.4,46.2 11,45.2C11.1,41.9 13.8,39.2 17.2,39.2C17.9,39.2 18.6,39.3 19.2,39.6C20.8,37.4 23.4,36 26.2,36C31,36 34.9,39.9 34.9,44.7C34.9,45.1 34.9,45.4 34.8,45.8C37.6,46.4 39.8,48.9 39.8,52C39.7,55.4 36.9,58.2 33.4,58.2ZM17.1,41.9C15.2,41.9 13.6,43.5 13.6,45.4C13.6,45.6 13.6,45.8 13.7,46L13.9,47.3L12.6,47.6C10.7,48 9.3,49.7 9.3,51.6C9.3,53.8 11.1,55.7 13.4,55.7L33.4,55.7C35.4,55.7 37,54.1 37,52.1C37,50.1 35.4,48.5 33.4,48.5L33.2,48.5L31.2,48.6L31.8,46.7C32,46.1 32.1,45.5 32.1,44.8C32.1,41.5 29.4,38.8 26.1,38.8C23.9,38.8 21.8,40 20.8,42L20.1,43.3L18.9,42.6C18.4,42.1 17.7,41.9 17.1,41.9Z" style="fill:white;fill-rule:nonzero;"/>
        <path d="M47.5,30.3C47.5,23.7 42.1,18.3 35.5,18.3C28.9,18.3 23.5,23.7 23.5,30.3C23.5,31 23.6,31.7 23.7,32.3C23.7,33.1 24.4,33.7 25.1,33.6C25.5,33.6 26.1,33.3 26.2,32.9C26.4,32.4 26.3,31.9 26.2,31.4C26.1,31 26.1,30.6 26.1,30.3C26.1,25.1 30.3,20.9 35.5,20.9C40.7,20.9 44.8,25.1 44.8,30.3C44.8,30.7 44.7,31.1 44.7,31.5C44.6,31.9 44.6,32.3 44.5,32.7C44.3,33.4 44,34.2 43.7,34.8C43.3,35.5 42.9,36.1 42.4,36.7C41.9,37.3 41.3,37.8 40.7,38.1C40,38.5 39.3,38.8 38.6,39.1C38.3,39.2 38,39.2 37.7,39.4C37.4,39.5 37.2,39.8 37.1,40.1C37,40.3 37,40.4 37,40.6C37,41.3 37.6,41.9 38.4,42C43.5,40.9 47.5,35.9 47.5,30.3Z" style="fill:rgb(244,167,29);fill-rule:nonzero;"/>
    </g>
</svg>
