<?xml version="1.0" encoding="UTF-8" standalone="no"?>
<!DOCTYPE svg PUBLIC "-//W3C//DTD SVG 1.1//EN" "http://www.w3.org/Graphics/SVG/1.1/DTD/svg11.dtd">
<svg width="100%" height="100%" viewBox="0 0 54 54" version="1.1" xmlns="http://www.w3.org/2000/svg" xmlns:xlink="http://www.w3.org/1999/xlink" xml:space="preserve" xmlns:serif="http://www.serif.com/" style="fill-rule:evenodd;clip-rule:evenodd;stroke-linejoin:round;stroke-miterlimit:2;">
    <g id="chancerain" transform="matrix(1,0,0,1,-5,-5)">
        <path d="M50.9,24.1C51,23.3 51.1,22.5 51.1,21.7C51.1,14.3 45.1,8.3 37.7,8.3C33.2,8.3 29,10.6 26.5,14.3C25.3,13.8 24.1,13.5 22.8,13.5C17.7,13.5 13.5,17.6 13.5,22.8L13.5,23.1C9.4,24.5 6.5,28.3 6.5,32.8C6.5,38.4 11.1,43 16.7,43L21.7,43C23.3,43 23.2,40.3 21.7,40.3L16.7,40.3C12.5,40.3 9.2,36.9 9.2,32.8C9.2,29.2 11.7,26.1 15.3,25.4L16.6,25.1L16.4,23.8C16.3,23.4 16.3,23.1 16.3,22.7C16.3,19.1 19.3,16.1 22.9,16.1C24.1,16.1 25.3,16.4 26.4,17.1L27.6,17.8L28.3,16.5C30.2,13 33.8,10.8 37.8,10.8C43.7,10.8 48.5,15.6 48.5,21.5C48.5,22.6 48.3,23.7 48,24.8L47.4,26.7L49.5,26.6L49.8,26.6C53.6,26.6 56.6,29.7 56.6,33.4C56.6,37.2 53.5,40.2 49.8,40.2L44.1,40.2C42.4,40.2 42.1,42.9 44.1,42.9L49.8,42.9C55,42.9 59.3,38.6 59.3,33.4C59.2,28.7 55.5,24.7 50.9,24.1Z" style="fill:white;fill-rule:nonzero;"/>
        <path d="M24.9,46.5C24.6,46.5 24.4,46.4 24.1,46.3C23.5,45.9 23.4,45 23.8,44.5L26.2,41C26.6,40.4 27.4,40.3 28,40.7C28.6,41.1 28.7,41.9 28.3,42.5L25.9,46C25.7,46.3 25.3,46.5 24.9,46.5ZM30.7,46.5C30.4,46.5 30.2,46.4 29.9,46.3C29.3,45.9 29.2,45 29.6,44.5L32,41C32.4,40.4 33.3,40.3 33.8,40.7C34.4,41.1 34.5,41.9 34.1,42.5L31.7,46C31.5,46.3 31.1,46.5 30.7,46.5ZM36.5,46.5C36.2,46.5 36,46.4 35.7,46.3C35.1,45.9 35,45 35.4,44.5L37.8,41C38.2,40.4 39.1,40.3 39.6,40.7C40.2,41.1 40.3,41.9 39.9,42.5L37.5,46C37.4,46.3 37,46.5 36.5,46.5ZM18.6,56C18.3,56 18.1,55.9 17.8,55.8C17.2,55.4 17.1,54.6 17.5,54L19.9,50.5C20.3,49.9 21.2,49.8 21.8,50.2C22.4,50.6 22.5,51.4 22.1,52L19.7,55.5C19.4,55.8 19,56 18.6,56ZM24.5,56C24.2,56 24,55.9 23.7,55.8C23.1,55.4 23,54.6 23.4,54L25.8,50.5C26.2,49.9 27,49.8 27.6,50.2C28.2,50.6 28.3,51.4 27.9,52L25.5,55.5C25.3,55.8 24.9,56 24.5,56ZM30.3,56C30,56 29.8,55.9 29.5,55.8C28.9,55.4 28.8,54.6 29.2,54L31.6,50.5C32,49.9 32.8,49.8 33.4,50.2C34,50.6 34.1,51.4 33.7,52L31.3,55.5C31.1,55.8 30.7,56 30.3,56Z" style="fill:rgb(40,133,199);fill-rule:nonzero;"/>
    </g>
</svg>
