<?xml version="1.0" encoding="UTF-8" standalone="no"?>
<!DOCTYPE svg PUBLIC "-//W3C//DTD SVG 1.1//EN" "http://www.w3.org/Graphics/SVG/1.1/DTD/svg11.dtd">
<svg width="100%" height="100%" viewBox="0 0 54 54" version="1.1" xmlns="http://www.w3.org/2000/svg" xmlns:xlink="http://www.w3.org/1999/xlink" xml:space="preserve" xmlns:serif="http://www.serif.com/" style="fill-rule:evenodd;clip-rule:evenodd;stroke-linejoin:round;stroke-miterlimit:2;">
    <g id="flurries" transform="matrix(1,0,0,1,-5,-5)">
        <path d="M39.2,41C39.9,40.1 39.7,38.8 38.8,38.1C37.9,37.4 36.6,37.6 35.9,38.5C35.2,39.4 35.4,40.7 36.3,41.4C37.2,42.1 38.5,41.9 39.2,41Z" style="fill:rgb(114,184,212);fill-rule:nonzero;"/>
        <g transform="matrix(0.608304,-0.793704,0.793704,0.608304,-20.5508,37.9113)">
            <circle cx="28.1" cy="39.8" r="2.1" style="fill:rgb(114,184,212);"/>
        </g>
        <path d="M39.2,58.1C39.9,57.2 39.7,55.9 38.8,55.2C37.9,54.5 36.6,54.7 35.9,55.6C35.2,56.5 35.4,57.8 36.3,58.5C37.2,59.2 38.5,59.1 39.2,58.1Z" style="fill:rgb(114,184,212);fill-rule:nonzero;"/>
        <g transform="matrix(0.608304,-0.793704,0.793704,0.608304,-34.1338,44.6136)">
            <circle cx="28.1" cy="56.9" r="2.1" style="fill:rgb(114,184,212);"/>
        </g>
        <g transform="matrix(0.607792,-0.794096,0.794096,0.607792,-25.6273,44.783)">
            <circle cx="32.5" cy="48.3" r="2.1" style="fill:rgb(114,184,212);"/>
        </g>
        <path d="M23.4,49.6C24.1,48.7 23.9,47.4 23,46.7C22.1,46 20.8,46.2 20.1,47.1C19.4,48 19.6,49.3 20.5,50C21.4,50.7 22.7,50.5 23.4,49.6ZM44.9,49.6C45.6,48.7 45.4,47.4 44.5,46.7C43.6,46 42.3,46.2 41.6,47.1C41,48 41.1,49.3 42,50C42.9,50.7 44.2,50.5 44.9,49.6Z" style="fill:rgb(114,184,212);fill-rule:nonzero;"/>
        <path d="M50.9,22.3C51.1,21.5 51.1,20.7 51.1,19.9C51.1,12.5 45.1,6.5 37.7,6.5C33.2,6.5 29,8.8 26.5,12.5C25.3,12 24.1,11.7 22.9,11.7C17.8,11.7 13.6,15.9 13.6,21L13.6,21.3C9.5,22.7 6.6,26.6 6.6,31C6.6,36.6 11.2,41.2 16.8,41.2L21.8,41.2C23.4,41.2 23.3,38.5 21.8,38.5L16.8,38.5C12.6,38.5 9.3,35.1 9.3,31C9.3,27.4 11.8,24.3 15.3,23.6L16.6,23.4L16.4,22.1C16.3,21.7 16.3,21.4 16.3,21C16.3,17.4 19.3,14.4 22.9,14.4C24.1,14.4 25.3,14.7 26.4,15.4L27.6,16.1L28.3,14.8C30.2,11.3 33.8,9.1 37.8,9.1C43.7,9.1 48.5,13.9 48.5,19.8C48.5,20.9 48.3,22 48,23.1L47.4,25L49.5,24.9L49.8,24.9C53.6,24.9 56.6,28 56.6,31.7C56.6,35.5 53.5,38.5 49.8,38.5L44.1,38.5C42.4,38.5 42.1,41.2 44.1,41.2L49.8,41.2C55,41.2 59.3,36.9 59.3,31.7C59.2,26.9 55.5,22.9 50.9,22.3Z" style="fill:white;fill-rule:nonzero;"/>
    </g>
</svg>
