<?xml version="1.0" encoding="UTF-8" standalone="no"?>
<!DOCTYPE svg PUBLIC "-//W3C//DTD SVG 1.1//EN" "http://www.w3.org/Graphics/SVG/1.1/DTD/svg11.dtd">
<svg width="100%" height="100%" viewBox="0 0 54 54" version="1.1" xmlns="http://www.w3.org/2000/svg" xmlns:xlink="http://www.w3.org/1999/xlink" xml:space="preserve" xmlns:serif="http://www.serif.com/" style="fill-rule:evenodd;clip-rule:evenodd;stroke-linejoin:round;stroke-miterlimit:2;">
    <g transform="matrix(1,0,0,1,-5,-5)">
        <path d="M49.3,57.8L16.9,57.8C11.3,57.8 6.7,53.2 6.7,47.6C6.7,43.2 9.5,39.3 13.6,38L13.6,37.8C13.6,32.7 17.8,28.5 22.9,28.5C24.1,28.5 25.3,28.7 26.4,29.3C28.8,25.6 33,23.4 37.5,23.4C44.8,23.4 50.9,29.4 50.9,36.8C50.9,37.6 50.8,38.3 50.7,39.1C55.3,39.8 58.9,43.7 58.9,48.5C58.7,53.5 54.5,57.8 49.3,57.8ZM22.8,31.4C19.3,31.4 16.5,34.2 16.5,37.7C16.5,38 16.5,38.4 16.6,38.8L16.8,40.2L15.4,40.4C12,41.1 9.6,44.1 9.6,47.5C9.6,51.5 12.9,54.8 16.9,54.8L49.3,54.8C52.9,54.8 55.9,51.8 55.9,48.2C55.9,44.6 52.9,41.6 49.3,41.6L49,41.6L46.8,41.7L47.5,39.6C47.8,38.6 48,37.5 48,36.4C48,30.6 43.3,26 37.6,26C33.8,26 30.2,28.2 28.4,31.6L27.6,33L26.3,32.2C25.2,31.6 24,31.4 22.8,31.4Z" style="fill:white;fill-rule:nonzero;"/>
    </g>
    <g transform="matrix(1,0,0,1,-5,-5)">
        <path d="M57.3,19.8C54,19.8 50.9,18.3 49.3,15.9C48,13.9 47.7,10.8 48.7,8.2L48.4,8.2C45.6,8.2 42.9,9.2 40.9,11.2C38.9,13.2 37.7,15.9 37.7,18.7C37.7,19.1 37.7,19.5 37.8,19.9L37.8,20.3L38.2,20.3C38.7,20.3 39.3,20.4 39.8,20.5L40.4,20.6L40.3,20C40.2,19.5 40.2,19.1 40.2,18.7C40.2,15.3 42.4,12.2 45.6,11C45.4,13.7 46.1,16.2 47.8,18.3C49.6,20.6 52.3,22.1 55.5,22.5C54.5,24.4 53.2,25.6 51.6,26.3L51,26.5L51.4,27C51.7,27.4 52,27.8 52.3,28.2L52.5,28.5L52.8,28.3C56,26.8 58.2,23.8 58.7,20.3L58.8,19.8L57.3,19.8Z" style="fill:rgb(114,184,212);fill-rule:nonzero;"/>
    </g>
</svg>
