<?xml version="1.0" encoding="UTF-8" standalone="no"?>
<!DOCTYPE svg PUBLIC "-//W3C//DTD SVG 1.1//EN" "http://www.w3.org/Graphics/SVG/1.1/DTD/svg11.dtd">
<svg width="100%" height="100%" viewBox="0 0 54 54" version="1.1" xmlns="http://www.w3.org/2000/svg" xmlns:xlink="http://www.w3.org/1999/xlink" xml:space="preserve" xmlns:serif="http://www.serif.com/" style="fill-rule:evenodd;clip-rule:evenodd;stroke-linejoin:round;stroke-miterlimit:2;">
    <g transform="matrix(1,0,0,1,-5,-5)">
        <path d="M40.2,58.2L15.1,58.2C10.5,58.2 6.7,54.4 6.7,49.8C6.7,46.3 8.8,43.1 12.1,41.9C12.2,37.8 15.6,34.4 19.9,34.4C20.8,34.4 21.7,34.5 22.4,34.9C24.4,32.1 27.7,30.4 31.2,30.4C37.2,30.4 42.1,35.3 42.1,41.3C42.1,41.8 42.1,42.2 42,42.7C45.5,43.5 48.3,46.6 48.3,50.5C48.1,54.7 44.6,58.2 40.2,58.2ZM19.8,37.7C17.4,37.7 15.4,39.7 15.4,42.1C15.4,42.4 15.4,42.6 15.5,42.9L15.8,44.5L14.2,44.9C11.8,45.4 10.1,47.5 10.1,49.9C10.1,52.7 12.4,55 15.2,55L40.3,55C42.8,55 44.8,53 44.8,50.5C44.8,48 42.8,46 40.3,46L40,46L37.5,46.1L38.3,43.7C38.6,42.9 38.7,42.2 38.7,41.3C38.7,37.2 35.3,33.8 31.2,33.8C28.4,33.8 25.8,35.3 24.5,37.8L23.6,39.4L22,38.6C21.4,38 20.5,37.7 19.8,37.7Z" style="fill:white;fill-rule:nonzero;"/>
    </g>
    <g transform="matrix(1,0,0,1,-5,-5)">
        <path d="M58.1,24.7L56.5,24.7C51.5,24.7 46.7,22.4 44.2,18.8C42.1,15.7 41.8,11.4 43.3,7.4L43,7.4C38.9,7.4 34.9,8.9 32.1,11.8C29.2,14.7 27.5,18.7 27.5,22.9C27.5,24.2 27.7,25.6 28,26.9L28.1,27.3L28.5,27.2C29.2,27 30,26.9 30.8,26.8L31.3,26.8L31.2,26.4C30.9,25.3 30.7,24.1 30.7,23C30.7,17.7 34.3,12.8 39.5,11C39,15.1 40.1,19 42.6,22.1C45.3,25.6 49.5,27.8 54.3,28.3C52.1,32.5 49.3,34.7 45.3,35.4L44.9,35.5L45.1,35.9C45.4,36.6 45.6,37.3 45.7,38L45.8,38.4L46.2,38.3C52.7,37 57.7,31.9 58.6,25.4L58.7,25L58.1,24.7Z" style="fill:rgb(114,184,212);fill-rule:nonzero;"/>
    </g>
</svg>
