<?xml version="1.0" encoding="UTF-8" standalone="no"?>
<!DOCTYPE svg PUBLIC "-//W3C//DTD SVG 1.1//EN" "http://www.w3.org/Graphics/SVG/1.1/DTD/svg11.dtd">
<svg width="100%" height="100%" viewBox="0 0 54 54" version="1.1" xmlns="http://www.w3.org/2000/svg" xmlns:xlink="http://www.w3.org/1999/xlink" xml:space="preserve" xmlns:serif="http://www.serif.com/" style="fill-rule:evenodd;clip-rule:evenodd;stroke-linejoin:round;stroke-miterlimit:2;">
    <g id="snow" transform="matrix(1,0,0,1,-5,-5)">
        <path d="M51.6,32L46.4,32L48.6,29.8C49,29.4 49,28.8 48.6,28.4C48.2,28 47.6,28 47.2,28.4L43.6,32L35.3,32L41.2,26.1L46.3,26.1C46.8,26.1 47.3,25.7 47.3,25.1C47.3,24.6 46.9,24.1 46.3,24.1L43.2,24.1L46.9,20.4C47.3,20 47.3,19.4 46.9,19C46.5,18.6 45.9,18.6 45.5,19L41.8,22.7L41.8,19.6C41.8,19.1 41.4,18.6 40.8,18.6C40.3,18.6 39.8,19 39.8,19.6L39.8,24.7L33.9,30.6L33.9,22.3L37.5,18.7C37.9,18.3 37.9,17.7 37.5,17.3C37.1,16.9 36.5,16.9 36.1,17.3L33.9,19.5L33.9,14.3C33.9,13.8 33.5,13.3 32.9,13.3C32.4,13.3 31.9,13.7 31.9,14.3L31.9,19.5L29.7,17.3C29.3,16.9 28.7,16.9 28.3,17.3C27.9,17.7 27.9,18.3 28.3,18.7L31.9,22.3L31.9,30.6L26,24.7L26,19.6C26,19.1 25.6,18.6 25,18.6C24.5,18.6 24,19 24,19.6L24,22.7L20.3,19C19.9,18.6 19.3,18.6 18.9,19C18.5,19.4 18.5,20 18.9,20.4L22.6,24.1L19.5,24.1C19,24.1 18.5,24.5 18.5,25.1C18.5,25.6 18.9,26.1 19.5,26.1L24.6,26.1L30.5,32L22.2,32L18.6,28.4C18.2,28 17.6,28 17.2,28.4C16.8,28.8 16.8,29.4 17.2,29.8L19.4,32L14.2,32C13.7,32 13.2,32.4 13.2,33C13.2,33.5 13.6,34 14.2,34L19.4,34L17.2,36.2C16.8,36.6 16.8,37.2 17.2,37.6C17.4,37.8 17.6,37.9 17.9,37.9C18.1,37.9 18.4,37.8 18.6,37.6L22.2,34L30.5,34L24.6,39.9L19.5,39.9C19,39.9 18.5,40.3 18.5,40.9C18.5,41.4 18.9,41.9 19.5,41.9L22.6,41.9L19,45.4C18.6,45.8 18.6,46.4 19,46.8C19.2,47 19.4,47.1 19.7,47.1C19.9,47.1 20.2,47 20.4,46.8L24.1,43.1L24.1,46.2C24.1,46.7 24.5,47.2 25.1,47.2C25.6,47.2 26.1,46.8 26.1,46.2L26.1,41.1L32,35.2L32,43.5L28.4,47.1C28,47.5 28,48.1 28.4,48.5C28.6,48.7 28.8,48.8 29.1,48.8C29.4,48.8 29.6,48.7 29.8,48.5L32,46.3L32,51.5C32,52 32.4,52.5 33,52.5C33.5,52.5 34,52.1 34,51.5L34,46.3L36.2,48.5C36.4,48.7 36.6,48.8 36.9,48.8C37.2,48.8 37.4,48.7 37.6,48.5C38,48.1 38,47.5 37.6,47.1L34,43.5L34,35.2L39.9,41.1L39.9,46.2C39.9,46.7 40.3,47.2 40.9,47.2C41.4,47.2 41.9,46.8 41.9,46.2L41.9,43.1L45.6,46.8C45.8,47 46,47.1 46.3,47.1C46.6,47.1 46.8,47 47,46.8C47.4,46.4 47.4,45.8 47,45.4L43.3,41.7L46.4,41.7C46.9,41.7 47.4,41.3 47.4,40.7C47.4,40.2 47,39.7 46.4,39.7L41.3,39.7L35.4,33.8L43.7,33.8L47.3,37.4C47.5,37.6 47.7,37.7 48,37.7C48.3,37.7 48.5,37.6 48.7,37.4C49.1,37 49.1,36.4 48.7,36L46.5,33.8L51.7,33.8C52.2,33.8 52.7,33.4 52.7,32.8C52.5,32.4 52.1,32 51.6,32Z" style="fill:rgb(114,184,212);fill-rule:nonzero;"/>
    </g>
</svg>
