<?xml version="1.0" encoding="UTF-8" standalone="no"?>
<!DOCTYPE svg PUBLIC "-//W3C//DTD SVG 1.1//EN" "http://www.w3.org/Graphics/SVG/1.1/DTD/svg11.dtd">
<svg width="100%" height="100%" viewBox="0 0 54 54" version="1.1" xmlns="http://www.w3.org/2000/svg" xmlns:xlink="http://www.w3.org/1999/xlink" xml:space="preserve" xmlns:serif="http://www.serif.com/" style="fill-rule:evenodd;clip-rule:evenodd;stroke-linejoin:round;stroke-miterlimit:2;">
    <g id="unknown" transform="matrix(1,0,0,1,-5,-5)">
        <path d="M49.7,50L16.8,50C11.2,50 6.6,45.4 6.6,39.8C6.6,35.4 9.5,31.5 13.6,30.1L13.6,29.8C13.6,24.7 17.8,20.5 22.9,20.5C24.2,20.5 25.4,20.8 26.5,21.3C29,17.6 33.1,15.3 37.7,15.3C45.1,15.3 51.1,21.3 51.1,28.7C51.1,29.5 51,30.3 50.9,31.1C55.6,31.7 59.2,35.7 59.2,40.5C59.2,45.7 54.9,50 49.7,50ZM22.9,23.2C19.3,23.2 16.3,26.2 16.3,29.8C16.3,30.1 16.3,30.5 16.4,30.9L16.6,32.2L15.3,32.4C11.8,33.1 9.2,36.2 9.2,39.8C9.2,44 12.6,47.3 16.7,47.3L49.6,47.3C53.4,47.3 56.4,44.2 56.4,40.5C56.4,36.7 53.3,33.7 49.6,33.7L49.3,33.7L47.3,33.8L47.9,31.9C48.2,30.8 48.4,29.7 48.4,28.6C48.4,22.7 43.6,17.9 37.7,17.9C33.7,17.9 30.1,20.1 28.2,23.6L27.5,24.8L26.3,24.1C25.3,23.5 24.1,23.2 22.9,23.2Z" style="fill:white;fill-rule:nonzero;"/>
        <path d="M33.9,39.5C33.2,39.5 32.6,38.9 32.6,38.2C32.6,36.3 32.7,35 34.2,33.4L35.1,32.5C36.3,31.3 37,30.5 36.9,29.4C36.8,28.2 36.2,27.5 34.9,27.2C33.9,26.9 32.6,27.3 31.9,28.1C31.5,28.5 31.3,29.2 31.3,29.9C31.4,30.6 30.8,31.3 30.1,31.3C29.4,31.3 28.7,30.8 28.7,30.1C28.6,28.8 29.1,27.3 30,26.4C31.4,24.9 33.7,24.2 35.7,24.7C38,25.3 39.5,27.1 39.6,29.4C39.7,31.7 38.2,33.2 37,34.4L36.2,35.2C35.4,36.1 35.3,36.7 35.3,38.3C35.2,38.9 34.6,39.5 33.9,39.5Z" style="fill:white;fill-rule:nonzero;"/>
        <circle cx="33.9" cy="43.3" r="1.4" style="fill:white;"/>
        <path d="M33.9,45.2C32.9,45.2 32,44.4 32,43.3C32,42.3 32.8,41.4 33.9,41.4C34.9,41.4 35.8,42.3 35.8,43.3C35.8,44.3 35,45.2 33.9,45.2ZM33.9,42.4C33.4,42.4 33.1,42.8 33.1,43.2C33.1,43.7 33.5,44 33.9,44C34.4,44 34.7,43.6 34.7,43.2C34.8,42.8 34.4,42.4 33.9,42.4Z" style="fill:white;fill-rule:nonzero;"/>
    </g>
</svg>
