<?xml version="1.0" encoding="UTF-8" standalone="no"?>
<!DOCTYPE svg PUBLIC "-//W3C//DTD SVG 1.1//EN" "http://www.w3.org/Graphics/SVG/1.1/DTD/svg11.dtd">
<svg width="100%" height="100%" viewBox="0 0 54 54" version="1.1" xmlns="http://www.w3.org/2000/svg" xmlns:xlink="http://www.w3.org/1999/xlink" xml:space="preserve" xmlns:serif="http://www.serif.com/" style="fill-rule:evenodd;clip-rule:evenodd;stroke-linejoin:round;stroke-miterlimit:2;">
    <g id="rain" transform="matrix(1,0,0,1,-5,-5)">
        <path d="M25.5,59.3C25.3,59.3 25.2,59.3 25,59.2C24.3,58.9 24,58.1 24.3,57.5L33.6,35.6C33.9,34.9 34.7,34.6 35.3,34.9C36,35.2 36.3,36 36,36.6L26.7,58.5C26.5,59 26,59.3 25.5,59.3ZM34,53.5C33.8,53.5 33.7,53.5 33.5,53.4C32.8,53.1 32.5,52.3 32.8,51.7L39.4,35.7C39.7,35 40.5,34.7 41.1,35C41.8,35.3 42.1,36.1 41.8,36.7L35.2,52.7C35,53.2 34.5,53.5 34,53.5ZM21.9,53.5C21.7,53.5 21.6,53.5 21.4,53.4C20.7,53.1 20.4,52.3 20.7,51.7L27.3,35.7C27.6,35 28.4,34.7 29,35C29.7,35.3 30,36.1 29.7,36.7L23.1,52.7C22.9,53.2 22.5,53.5 21.9,53.5Z" style="fill:rgb(40,133,199);fill-rule:nonzero;"/>
        <path d="M50.9,22.4C51,21.6 51.1,20.8 51.1,20C51.1,12.6 45.1,6.6 37.7,6.6C33.2,6.6 29,8.9 26.5,12.6C25.3,12.1 24.1,11.8 22.8,11.8C17.7,11.8 13.5,16 13.5,21.1L13.5,21.4C9.4,22.8 6.5,26.6 6.5,31.1C6.5,36.7 11.1,41.3 16.7,41.3L21.7,41.3C23.3,41.3 23.2,38.6 21.7,38.6L16.7,38.6C12.5,38.6 9.2,35.2 9.2,31.1C9.2,27.5 11.7,24.4 15.3,23.7L16.6,23.4L16.4,22.1C16.3,21.7 16.3,21.4 16.3,21C16.3,17.4 19.3,14.4 22.9,14.4C24.1,14.4 25.3,14.7 26.4,15.4L27.6,16.1L28.3,14.8C30.2,11.3 33.8,9.1 37.8,9.1C43.7,9.1 48.5,13.9 48.5,19.8C48.5,20.9 48.3,22 48,23.1L47.4,25L49.5,24.9L49.8,24.9C53.6,24.9 56.6,28 56.6,31.7C56.6,35.5 53.5,38.5 49.8,38.5L44.1,38.5C42.4,38.5 42.1,41.2 44.1,41.2L49.8,41.2C55,41.2 59.3,36.9 59.3,31.7C59.2,27 55.6,23 50.9,22.4Z" style="fill:white;fill-rule:nonzero;"/>
    </g>
</svg>
