<?xml version="1.0" encoding="UTF-8" standalone="no"?>
<!DOCTYPE svg PUBLIC "-//W3C//DTD SVG 1.1//EN" "http://www.w3.org/Graphics/SVG/1.1/DTD/svg11.dtd">
<svg width="100%" height="100%" viewBox="0 0 54 54" version="1.1" xmlns="http://www.w3.org/2000/svg" xmlns:xlink="http://www.w3.org/1999/xlink" xml:space="preserve" xmlns:serif="http://www.serif.com/" style="fill-rule:evenodd;clip-rule:evenodd;stroke-linejoin:round;stroke-miterlimit:2;">
    <g id="sunny" transform="matrix(1,0,0,1,-5,-5)">
        <path d="M32.9,19.2C32.2,19.2 31.6,18.6 31.6,17.9L31.6,13.3C31.6,12.6 32.2,12 32.9,12C33.6,12 34.2,12.6 34.2,13.3L34.2,17.9C34.2,18.6 33.6,19.2 32.9,19.2ZM32.9,53.8C32.2,53.8 31.6,53.2 31.6,52.5L31.6,47.9C31.6,47.2 32.2,46.6 32.9,46.6C33.6,46.6 34.2,47.2 34.2,47.9L34.2,52.5C34.2,53.2 33.6,53.8 32.9,53.8ZM17.9,34.2L13.3,34.2C12.6,34.2 12,33.6 12,32.9C12,32.2 12.6,31.6 13.3,31.6L17.9,31.6C18.6,31.6 19.2,32.2 19.2,32.9C19.2,33.6 18.6,34.2 17.9,34.2ZM52.5,34.2L47.9,34.2C47.2,34.2 46.6,33.6 46.6,32.9C46.6,32.2 47.2,31.6 47.9,31.6L52.5,31.6C53.2,31.6 53.8,32.2 53.8,32.9C53.8,33.6 53.2,34.2 52.5,34.2ZM44,23.5C43.7,23.5 43.3,23.4 43.1,23.1C42.6,22.6 42.6,21.7 43.1,21.2L46.3,18C46.8,17.5 47.7,17.5 48.2,18C48.7,18.5 48.7,19.4 48.2,19.9L45,23.1C44.7,23.4 44.3,23.5 44,23.5ZM19.1,48.4C18.8,48.4 18.4,48.3 18.2,48C17.7,47.5 17.7,46.6 18.2,46.1L21.4,42.9C21.9,42.4 22.8,42.4 23.3,42.9C23.8,43.4 23.8,44.3 23.3,44.8L20,48C19.8,48.3 19.4,48.4 19.1,48.4ZM47.2,48.2C46.9,48.2 46.5,48.1 46.3,47.8L43.1,44.6C42.6,44.1 42.6,43.2 43.1,42.7C43.6,42.2 44.5,42.2 45,42.7L48.2,45.9C48.7,46.4 48.7,47.3 48.2,47.8C47.9,48.1 47.6,48.2 47.2,48.2ZM22.3,23.8C22,23.8 21.6,23.7 21.4,23.4L18.2,20.2C17.7,19.7 17.7,18.8 18.2,18.3C18.7,17.8 19.6,17.8 20.1,18.3L23.3,21.5C23.8,22 23.8,22.9 23.3,23.4C23,23.6 22.7,23.8 22.3,23.8ZM32.9,24.5C37.5,24.5 41.3,28.3 41.3,32.9C41.3,37.5 37.5,41.3 32.9,41.3C28.3,41.3 24.5,37.5 24.5,32.9C24.5,28.3 28.3,24.5 32.9,24.5M32.9,21.8C26.8,21.8 21.8,26.8 21.8,32.9C21.8,39 26.8,44 32.9,44C39,44 44,39 44,32.9C44,26.8 39,21.8 32.9,21.8Z" style="fill:rgb(244,167,29);fill-rule:nonzero;"/>
    </g>
</svg>
