<?xml version="1.0" encoding="UTF-8" standalone="no"?>
<!DOCTYPE svg PUBLIC "-//W3C//DTD SVG 1.1//EN" "http://www.w3.org/Graphics/SVG/1.1/DTD/svg11.dtd">
<svg width="100%" height="100%" viewBox="0 0 54 54" version="1.1" xmlns="http://www.w3.org/2000/svg" xmlns:xlink="http://www.w3.org/1999/xlink" xml:space="preserve" xmlns:serif="http://www.serif.com/" style="fill-rule:evenodd;clip-rule:evenodd;stroke-linejoin:round;stroke-miterlimit:2;">
    <g id="tstorms" transform="matrix(1,0,0,1,-5,-5)">
        <path d="M19.7,53C19.5,53 19.3,53 19.1,52.9C18.4,52.6 18.2,51.8 18.5,51.1L21.3,45.3C21.6,44.6 22.4,44.4 23.1,44.7C23.8,45 24,45.8 23.7,46.5L20.9,52.3C20.6,52.7 20.2,53 19.7,53ZM13.1,53C12.9,53 12.7,53 12.5,52.9C11.8,52.6 11.6,51.8 11.9,51.1L14.7,45.3C15,44.6 15.8,44.4 16.5,44.7C17.2,45 17.4,45.8 17.1,46.5L14.3,52.3C14.1,52.7 13.6,53 13.1,53ZM46.8,53C46.6,53 46.4,53 46.2,52.9C45.5,52.6 45.3,51.8 45.6,51.1L48.4,45.3C48.7,44.6 49.5,44.4 50.2,44.7C50.9,45 51.1,45.8 50.8,46.5L48,52.3C47.8,52.7 47.3,53 46.8,53ZM40.2,53C40,53 39.8,53 39.6,52.9C38.9,52.6 38.7,51.8 39,51.1L41.8,45.3C42.1,44.6 42.9,44.4 43.6,44.7C44.3,45 44.5,45.8 44.2,46.5L41.4,52.3C41.2,52.7 40.7,53 40.2,53Z" style="fill:rgb(40,133,199);fill-rule:nonzero;"/>
        <path d="M27.7,59.3C27.5,59.3 27.2,59.2 27,59.1C26.4,58.7 26.2,57.9 26.6,57.3L34.5,44.2L26.2,44.2L35.5,31C35.9,30.4 36.7,30.3 37.3,30.7C37.9,31.1 38,32 37.6,32.6L31.2,41.7L39.1,41.7L28.8,58.6C28.6,59 28.1,59.3 27.7,59.3Z" style="fill:rgb(244,167,29);fill-rule:nonzero;"/>
        <path d="M50.9,22.3C51,21.5 51.1,20.7 51.1,19.9C51.1,12.5 45.1,6.5 37.7,6.5C33.2,6.5 29,8.8 26.5,12.5C25.4,12 24.1,11.7 22.9,11.7C17.8,11.7 13.6,15.9 13.6,21L13.6,21.3C9.5,22.7 6.6,26.5 6.6,31C6.6,36.6 11.2,41.2 16.8,41.2L21.8,41.2C23.4,41.2 23.3,38.6 21.8,38.6L16.8,38.6C12.6,38.6 9.3,35.2 9.3,31.1C9.3,27.5 11.8,24.4 15.4,23.7L16.7,23.5L16.5,22.2C16.4,21.8 16.4,21.4 16.4,21.1C16.4,17.5 19.4,14.5 23,14.5C24.2,14.5 25.4,14.8 26.5,15.5L27.7,16.2L28.4,14.9C30.3,11.4 33.9,9.2 37.9,9.2C43.8,9.2 48.6,14 48.6,19.9C48.6,21 48.4,22.1 48.1,23.2L47.3,25L49.4,24.9L49.7,24.9C53.5,24.9 56.5,28 56.5,31.7C56.5,35.5 53.4,38.5 49.7,38.5L44,38.5C42.3,38.5 42,41.1 44,41.1L49.7,41.1C54.9,41.1 59.2,36.8 59.2,31.6C59.2,26.9 55.5,22.9 50.9,22.3Z" style="fill:white;fill-rule:nonzero;"/>
    </g>
</svg>
